<svg xmlns="http://www.w3.org/2000/svg" xmlns:xlink="http://www.w3.org/1999/xlink" xmlns:fi="http://pattern.flaticon.com/" x="0" y="0" width="700" height="350" viewBox="0 0 700 350"><rect x="0px" y="0px" width="100%" height="100%" opacity="1" fill="#0e293c"/><defs><path d="M392,144v-16h88V16h-88V0h-48v16H136C60.924,16.084,0.084,76.924,0,152v8c0.084,75.076,60.924,135.916,136,136h88v16h48    v-16h64c13.255,0,24,10.745,24,24v8c0,13.255-10.745,24-24,24H136v-16H88v16H0v112h88v16h48v-16h208    c75.076-0.084,135.916-60.924,136-136v-8c-0.084-75.076-60.924-135.916-136-136h-72v-16h-48v16h-80c-13.255,0-24-10.745-24-24v-8    c0-13.255,10.745-24,24-24h200v16H392z M464,32v80h-72V32H464z M376,16v112h-16V16H376z M16,448v-80h72v80H16z M104,464V352h16    v112H104z M344,200c66.243,0.075,119.925,53.757,120,120v8c-0.075,66.243-53.757,119.925-120,120H136v-80h200    c22.08-0.026,39.974-17.92,40-40v-8c-0.026-22.08-17.92-39.974-40-40h-64v-80H344z M256,184v112h-16V184H256z M144,112    c-22.08,0.026-39.974,17.92-40,40v8c0.026,22.08,17.92,39.974,40,40h80v80h-88c-66.243-0.075-119.925-53.757-120-120v-8    C16.075,85.757,69.757,32.075,136,32h208v80H144z" transform="matrix(0.0416666679084301 0 0 0.0416666679084301 77.5 340)" id="L1_24"/><g transform="matrix(0.0833333358168602 0 0 0.0833333358168602 155 330)" id="L1_25"><path d="M56,313.92l-6.584,9.536C44.36,330.776,0,395.816,0,424c0.035,30.913,25.087,55.965,56,56     c30.913-0.035,55.965-25.087,56-56c0-28.184-44.36-93.224-49.416-100.544L56,313.92z M56,464c-22.091,0-40-17.909-40-40     c0-15.472,22.4-54.752,40-81.656C73.6,369.248,96,408.52,96,424C96,446.091,78.091,464,56,464z"/><path d="M416,96V72h-48v48h-32c0-13.255-10.745-24-24-24h-48V48h72V24c0-13.255-10.745-24-24-24H168c-13.255,0-24,10.745-24,24     v24h72v48h-48c-13.255,0-24,10.745-24,24H72c-39.746,0.044-71.956,32.254-72,72v104h112v-56c0-4.418,3.582-8,8-8h24     c0,13.255,10.745,24,24,24h144c13.255,0,24-10.745,24-24h32v48h48v-24h64V96H416z M144,216h-24c-13.255,0-24,10.745-24,24v40H16     v-88c0.035-30.913,25.087-55.965,56-56h72V216z M160,32v-8c0-4.418,3.582-8,8-8h144c4.418,0,8,3.582,8,8v8H160z M248,48v48h-16     V48H248z M320,232c0,4.418-3.582,8-8,8H168c-4.418,0-8-3.582-8-8V120c0-4.418,3.582-8,8-8h144c4.418,0,8,3.582,8,8V232z M368,216     h-32v-80h32V216z M400,264h-16V88h16V264z M464,240h-48V112h48V240z"/></g><path d="M440,16h40V0h-40c-13.255,0-24,10.745-24,24v88H304V24c0-13.255-10.745-24-24-24h-80c-13.255,0-24,10.745-24,24v88H64V24    C64,10.745,53.255,0,40,0H0v16h40c4.418,0,8,3.582,8,8v88H16v48h16v32h16v216c0,39.764,32.235,72,72,72s72-32.236,72-72V192h16    v-32h16v-48h-32V24c0-4.418,3.582-8,8-8h80c4.418,0,8,3.582,8,8v88h-32v48h16v32h16v216c0,39.764,32.236,72,72,72    c39.765,0,72-32.236,72-72V192h16v-32h16v-48h-32V24C432,19.582,435.582,16,440,16z M176,408c0,30.928-25.072,56-56,56    c-30.928,0-56-25.072-56-56V192h112V408z M192,176H48v-16h144V176z M208,128v16H32v-16H208z M416,408c0,30.928-25.072,56-56,56    c-30.928,0-56-25.072-56-56V192h112V408z M432,176H288v-16h144V176z M448,128v16H272v-16H448z" transform="matrix(0.0416666679084301 0 0 0.0416666679084301 252.5 340)" id="L1_26"/><g transform="matrix(0.1458333283662796 0 0 0.1458333283662796 315 140)" id="L1_27"><path d="M184,72h-25.472c-4.44-12.466-18.145-18.971-30.611-14.531c-12.465,4.44-18.971,18.145-14.531,30.611    c3.406,9.56,12.465,15.938,22.614,15.92c10.134-0.042,19.15-6.445,22.528-16H184c4.418,0,8-3.582,8-8S188.418,72,184,72z M136,88    c-4.418,0-8-3.582-8-8s3.582-8,8-8s8,3.582,8,8S140.418,88,136,88z"/><path d="M400,0H80c-4.418,0-8,3.582-8,8v32c0,4.418,3.582,8,8,8h8v184c0,4.418,3.582,8,8,8h72v16h-64c-13.255,0-24,10.745-24,24    v16c0,4.418,3.582,8,8,8h8.264c2.662,48.497,29.649,92.365,71.736,116.608V472c0,4.418,3.582,8,8,8h128c4.418,0,8-3.582,8-8    v-51.392c42.087-24.243,69.074-68.111,71.736-116.608H392c4.418,0,8-3.582,8-8v-16c0-13.255-10.745-24-24-24h-64v-16h72    c4.418,0,8-3.582,8-8V48h8c4.418,0,8-3.582,8-8V8C408,3.582,404.418,0,400,0z M296,464H184v-35.312    c35.855,14.856,76.145,14.856,112,0V464z M300.24,408.944c-37.633,20.059-82.783,20.059-120.416,0    c-39.232-20.857-64.812-60.597-67.552-104.944h255.456C365.001,348.334,339.447,388.07,300.24,408.944z M376,272    c4.418,0,8,3.582,8,8v8H96v-8c0-4.418,3.582-8,8-8H376z M184,256v-16h112v16H184z M376,224H104v-15.912h272V224z M376,192.088H104    V48h272V192.088z M392,32H88V16h304V32z"/></g><path d="M320,32V0h-48v16h-32v16H136C78.59,32.066,32.066,78.59,32,136v104H16v32H0v48h32v160h144V320h32v-48h-16v-32h-16v-56    c0-4.418,3.582-8,8-8h56v16h32v16h48v-32h160V32H320z M32,256h144v16H32V256z M160,464H48V320h112V464z M192,288v16H16v-16H192z     M240,160h-56c-13.255,0-24,10.745-24,24v56H48V136c0.057-48.577,39.423-87.943,88-88h104V160z M272,176h-16V32h16V176z M304,192    h-16V16h16V192z M464,160H320V48h144V160z" transform="matrix(0.1875 0 0 0.1875 217.5 217.5)" id="L1_28"/><g transform="matrix(0.1810960081287724 0.04852452913060459 -0.04852452913060459 0.1810960081287724 318.1790971003762 294.88732311768604)" id="L1_29"><path d="M477.6,226.266l-232-224c-3.1-2.992-8.012-2.992-11.112,0l-62.48,60.4c-2.683,2.57-3.243,6.65-1.352,9.848    c6.616,11.088,11.8,20.152,16.328,28.536c23.992,44.056,29.024,65.088,29.024,74.968c-0.009,26.381-14.444,50.645-37.625,63.241    c-34.94,18.985-78.654,6.051-97.639-28.889c-5.487-10-8.471-21.18-8.696-32.584c-0.029-2.055-0.848-4.021-2.287-5.488    c-3.093-3.155-8.158-3.205-11.313-0.112l-56,54.072c-1.566,1.51-2.45,3.593-2.448,5.768c0.005,4.418,3.59,7.996,8.008,7.992h40    v232c0,4.418,3.582,8,8,8h368c4.418,0,8-3.582,8-8v-232h40c2.18,0.009,4.269-0.873,5.784-2.44    C480.863,234.401,480.777,229.337,477.6,226.266z M424.008,224.018c-4.418,0-8,3.582-8,8v232h-352v-232c0-4.418-3.582-8-8-8h-28.2    l30.216-29.176c1.759,8.089,4.666,15.885,8.632,23.152c15.393,28.376,45.086,46.045,77.368,46.04    c48.601-0.009,87.993-39.415,87.984-88.016c0-17.32-10.136-44.344-30.96-82.6c-3.864-7.144-8.184-14.76-13.416-23.64    l52.376-50.632l212.2,204.872H424.008z"/><path d="M430.2,226.282L245.56,46.762c-3.105-3.018-8.047-3.018-11.152,0L188.432,91.49c-0.112,0.103-0.222,0.21-0.328,0.319    c-3.078,3.17-3.002,8.235,0.168,11.312s8.235,3.002,11.312-0.168l40.424-39.304l179.04,174.104c1.499,1.457,3.509,2.27,5.6,2.264    c2.152-0.007,4.211-0.88,5.711-2.423C433.44,234.427,433.368,229.362,430.2,226.282z"/><path d="M79.42,208.574c-3.093-3.166-8.166-3.225-11.332-0.132l-18.32,17.84c-1.555,1.512-2.43,3.591-2.423,5.759    c0.013,4.418,3.605,7.99,8.023,7.977c2.091,0.006,4.101-0.807,5.6-2.264l18.32-17.848C82.454,216.813,82.513,211.74,79.42,208.574    z"/><path d="M201.048,93.402c-4.664-8.56-9.912-17.808-16.664-29.12c-17.6-29.296-33.632-52.576-33.792-52.8l-6.584-9.552    l-6.584,9.544c-3.32,4.808-81.416,118.424-81.416,164.544v2.12c1.176,47.76,40.225,85.868,88,85.88    c48.577-0.057,87.943-39.423,88-88C232.008,158.698,221.872,131.674,201.048,93.402z M178.31,239.332    c-34.962,18.944-78.661,5.959-97.606-29.002c-5.463-9.94-8.446-21.052-8.696-32.392v-1.92c0-31.12,47.072-108.272,72-145.696    c6.2,9.384,16.136,24.688,26.648,42.192c6.616,11.088,11.8,20.152,16.328,28.536c23.992,44.056,29.024,65.088,29.024,74.968    C216.012,202.442,201.542,226.744,178.31,239.332z"/><path d="M184.008,176.018c-0.026,22.08-17.92,39.974-40,40v16c30.913-0.035,55.965-25.087,56-56H184.008z"/><path d="M160.008,304.018v176h160v-176H160.008z M304.008,464.018h-128v-144h128V464.018z"/></g><path d="M424,280v-32h-16V128c-0.066-57.41-46.59-103.934-104-104H184V8h-48v64h-16v-8c-0.051-0.447-0.139-0.888-0.264-1.32    c0-0.294-0.016-0.588-0.048-0.88l-16-56C102.706,2.368,99.57,0.002,96,0H64c-3.57,0.002-6.706,2.368-7.688,5.8l-16,56    c-0.032,0.292-0.048,0.586-0.048,0.88C40.139,63.112,40.051,63.553,40,64v64c0.051,0.447,0.139,0.888,0.264,1.32    c0,0.294,0.016,0.588,0.048,0.88l16,56c0.982,3.432,4.118,5.798,7.688,5.8h32c3.57-0.002,6.706-2.368,7.688-5.8l16-56    c0.032-0.292,0.048-0.586,0.048-0.88c0.125-0.432,0.213-0.873,0.264-1.32v-8h16v64h48v-16h72c4.418,0,8,3.582,8,8v72h-16v32h-16    v48h32v152h144V328h32v-48H424z M70.032,16h19.936l11.424,40H58.608L70.032,16z M89.968,176H70.032l-11.424-40h42.784L89.968,176z     M104,120H56V72h48V120z M136,104h-16V88h16V104z M168,168h-16V24h16V168z M256,152h-72V40h120c48.577,0.057,87.943,39.423,88,88    v120H280v-72C280,162.745,269.255,152,256,152z M264,264h144v16H264V264z M392,464H280V328h112V464z M424,312H248v-16h176V312z" transform="matrix(0.0833333358168602 0 0 0.0833333358168602 242.5 67.5)" id="L1_30"/><g transform="matrix(0.10389114171266556 0 0 0.10389114171266556 62.5 237.5)" id="L1_31"><path d="M464.963,264.251c0-0.001,0-0.001,0-0.002l0-0.008l-24.88-92.72c-1.144-4.268-5.531-6.8-9.798-5.656     c-0.001,0-0.001,0-0.002,0l-238.248,63.864v-98.792l199.112-53.376c4.264-1.144,6.796-5.526,5.656-9.792L380.235,5.921     c-0.548-2.048-1.886-3.794-3.72-4.856c-1.841-1.051-4.021-1.338-6.072-0.8L192.035,48.057V25.353c0-4.418-3.582-8-8-8l-128-0.08     c-4.418,0-8,3.582-8,8v376h-16v32h-16v48h208v-48h-16v-32h-16v-55.624l151.344-40.544l6.224,23.2     c0.937,3.494,4.102,5.925,7.72,5.928c0.702,0,1.401-0.092,2.08-0.272l92.728-24.848c4.264-1.144,6.796-5.526,5.656-9.792     l-6.224-23.2l7.744-2.072C463.575,272.905,466.107,268.519,464.963,264.251z M64.035,193.273h112v208h-112V193.273z      M48.035,417.273h144v16h-144V417.273z M208.035,449.273v16h-176v-16H208.035z M181.963,117.073     c-3.494,0.937-5.925,4.102-5.928,7.72v52.48h-112v-144l112,0.064v25.136c-0.001,4.418,3.581,8,7.999,8.001     c0.7,0,1.397-0.092,2.073-0.273l180.752-48.416l12.416,46.4L181.963,117.073z M362.987,316.473l-4.144-15.448l77.28-20.704     l4.136,15.456L362.987,316.473z M192.035,329.097v-82.8l234.664-62.904l20.736,77.264L192.035,329.097z"/><path d="M408.035,339.193l-6.584,9.536c-4.24,6.144-41.416,60.648-41.416,84.544c0,26.51,21.49,48,48,48c26.51,0,48-21.49,48-48     c0-23.896-37.176-78.4-41.416-84.544L408.035,339.193z M408.035,465.273c-17.673,0-32-14.327-32-32c0-12.296,17.6-43.424,32-65.6     c14.4,22.184,32,53.312,32,65.6C440.035,450.946,425.708,465.273,408.035,465.273z"/></g><g transform="matrix(0.14083835641359238 -0.037737523864348706 0.037737523864348706 0.14083835641359238 132.13560561709573 150.25115670518747)" id="L1_32"><path d="M240.132,0C138.511-0.049,56.092,82.292,56.043,183.912c-0.035,73.827,44.06,140.527,112,169.416v70.76    c0,4.418,3.582,8,8,8h16v40c0,4.418,3.582,8,8,8h80c4.418,0,8-3.582,8-8v-40h16c4.418,0,8-3.582,8-8v-70.76    c68.088-28.615,112.275-95.384,112-169.24C424.092,82.468,341.752,0.049,240.132,0z M272.043,464.088h-64v-32h64V464.088z     M296.043,416.088h-112v-56.672c0.984,0.312,2,0.528,2.992,0.8c1.936,0.584,3.896,1.096,5.848,1.6    c3.077,0.816,6.179,1.549,9.304,2.2c2.224,0.464,4.448,0.912,6.688,1.296c2.944,0.496,5.904,0.88,8.864,1.232    c2.312,0.28,4.616,0.608,6.944,0.8c3.632,0.296,7.28,0.416,10.92,0.504c1.488,0,2.952,0.2,4.44,0.2s2.952-0.168,4.44-0.2    c3.64-0.088,7.288-0.208,10.92-0.504c2.328-0.192,4.632-0.52,6.944-0.8c2.96-0.352,5.92-0.736,8.864-1.232    c2.24-0.384,4.464-0.8,6.688-1.296c3.128-0.648,6.224-1.384,9.312-2.2c1.952-0.52,3.896-1.032,5.832-1.6    c0.992-0.304,2.008-0.512,3-0.8L296.043,416.088z M301.139,340.632h-0.008c-4.856,1.904-9.808,3.568-14.816,4.992    c-25.163,7.112-51.626,8.33-77.336,3.56c-10.256-1.895-20.309-4.759-30.024-8.552c-86.432-33.74-129.147-131.159-95.406-217.59    S214.708-6.105,301.139,27.635c86.432,33.74,129.147,131.159,95.406,217.59C379.472,288.962,344.876,323.559,301.139,340.632z"/><path d="M358.051,116.76c-0.104-0.224-0.104-0.456-0.224-0.672c-0.184-0.235-0.382-0.459-0.592-0.672    c-11.791-20.034-28.492-36.732-48.528-48.52c-0.21-0.21-0.432-0.407-0.664-0.592c-0.216-0.12-0.448-0.12-0.672-0.224    c-41.68-23.99-92.976-23.99-134.656,0c-0.216,0.104-0.456,0.104-0.672,0.224c-0.232,0.185-0.454,0.382-0.664,0.592    c-20.039,11.787-36.741,28.489-48.528,48.528c-0.21,0.21-0.407,0.432-0.592,0.664c-0.12,0.216-0.12,0.448-0.224,0.672    c-24.064,41.871-23.997,93.392,0.176,135.2c0,0.056,0,0.112,0.048,0.16c0.522,0.858,1.2,1.609,2,2.216l0.336,0.256    c1.341,0.974,2.951,1.508,4.608,1.528c0.24,0,0.488-0.072,0.728-0.096c0.24-0.024,0.368-0.04,0.552-0.072    c0.951-0.134,1.87-0.441,2.712-0.904l27.712-16c3.841-2.184,5.184-7.068,3-10.909s-7.068-5.184-10.909-3    c-0.031,0.017-0.061,0.035-0.092,0.053l-20.536,11.856c-6.919-14.055-11.015-29.329-12.056-44.96h23.728c4.418,0,8-3.582,8-8    s-3.582-8-8-8h-23.592c1.014-15.598,5.092-30.843,12-44.864l20.432,11.792c3.812,2.234,8.713,0.956,10.947-2.856    c2.234-3.812,0.956-8.713-2.856-10.947c-0.03-0.018-0.061-0.035-0.092-0.053l-20.512-11.84    c8.729-12.985,19.895-24.151,32.88-32.88l11.84,20.504c2.184,3.841,7.068,5.184,10.909,3c3.841-2.184,5.184-7.068,3-10.909    c-0.017-0.031-0.035-0.061-0.053-0.092L187.155,76.52c14.027-6.92,29.28-11.006,44.888-12.024v23.592c0,4.418,3.582,8,8,8    s8-3.582,8-8V64.496c15.598,1.014,30.843,5.092,44.864,12L281.115,96.92c-2.235,3.811-0.957,8.713,2.854,10.948    c3.811,2.235,8.713,0.957,10.948-2.854c0.018-0.031,0.036-0.062,0.054-0.093l11.84-20.504c12.985,8.729,24.151,19.895,32.88,32.88    l-20.512,11.84c-3.841,2.184-5.184,7.068-3,10.909c2.184,3.841,7.068,5.184,10.909,3c0.031-0.017,0.061-0.035,0.092-0.053    l20.432-11.792c6.92,14.027,11.006,29.28,12.024,44.888h-23.592c-4.418,0-8,3.582-8,8s3.582,8,8,8h23.728    c-1.045,15.62-5.141,30.883-12.056,44.928l-20.536-11.856c-3.841-2.184-8.725-0.841-10.909,3    c-2.163,3.805-0.867,8.642,2.909,10.856l27.712,16c3.824,2.212,8.718,0.906,10.931-2.919c0.002-0.003,0.004-0.006,0.005-0.009    c0-0.048,0-0.104,0.048-0.16c11.901-20.628,18.167-44.025,18.168-67.84C376.041,160.458,369.837,137.242,358.051,116.76z"/><path d="M240.043,160.088c-13.255,0-24,10.745-24,24c0.013,1.462,0.166,2.919,0.456,4.352l-35.88,20.72    c-3.841,2.184-5.184,7.068-3,10.909s7.068,5.184,10.909,3c0.031-0.017,0.061-0.035,0.092-0.053l36.04-20.8    c4.262,3.733,9.719,5.816,15.384,5.872c13.255,0,24-10.745,24-24S253.298,160.088,240.043,160.088z M240.043,192.088    c-4.418,0-8-3.582-8-8c0.109-4.372,3.628-7.891,8-8c4.418,0,8,3.582,8,8S244.462,192.088,240.043,192.088z"/><path d="M288.043,240.088h-96c-4.418,0-8,3.582-8,8v48c0,4.418,3.582,8,8,8h96c4.418,0,8-3.582,8-8v-48    C296.043,243.67,292.462,240.088,288.043,240.088z M280.043,288.088h-80v-32h80V288.088z"/><path d="M240.043,24.088c-88.366,0-160,71.634-160,160s71.634,160,160,160s160-71.634,160-160    C399.942,95.765,328.367,24.189,240.043,24.088z M240.043,328.088c-79.529,0-144-64.471-144-144s64.471-144,144-144    s144,64.471,144,144C383.951,263.579,319.534,327.995,240.043,328.088z"/></g><path d="M448,368v-32h-16V192c0-13.255-10.745-24-24-24H264v-16h-48v16h-24v-24h16v-32h16V64h-32V0H48v64H16v48h16v32h16v144    c0,13.255,10.745,24,24,24h144v16h48v-16h24v24h-16v32h-16v48h32v64h144v-64h32v-48H448z M64,16h112v48H64V16z M32,96V80h176v16    H32z M48,128v-16h144v16H48z M216,296H72c-4.418,0-8-3.582-8-8V144h112v32c0,4.418,3.582,8,8,8h32V296z M248,312h-16V168h16V312z     M264,296V184h144c4.418,0,8,3.582,8,8v144H304v-32c0-4.418-3.582-8-8-8H264z M288,352h144v16H288V352z M416,464H304v-48h112V464z     M448,400H272v-16h176V400z" transform="matrix(0.0833333358168602 0 0 0.0833333358168602 67.5 67.5)" id="L1_33"/></defs><g fi:class="KUsePattern"><pattern id="pattern_L1_24" width="350" height="350" patternUnits="userSpaceOnUse"><use xlink:href="#L1_24" x="-350" y="-350"/><use xlink:href="#L1_24" x="0" y="-350"/><use xlink:href="#L1_24" x="350" y="-350"/><use xlink:href="#L1_24" x="-350" y="0"/><use xlink:href="#L1_24" x="0" y="0"/><use xlink:href="#L1_24" x="350" y="0"/><use xlink:href="#L1_24" x="-350" y="350"/><use xlink:href="#L1_24" x="0" y="350"/><use xlink:href="#L1_24" x="350" y="350"/></pattern><rect x="0" y="0" width="100%" height="100%" fill="url(#pattern_L1_24)"/></g><g fi:class="KUsePattern"><pattern id="pattern_L1_25" width="350" height="350" patternUnits="userSpaceOnUse"><use xlink:href="#L1_25" x="-350" y="-350"/><use xlink:href="#L1_25" x="0" y="-350"/><use xlink:href="#L1_25" x="350" y="-350"/><use xlink:href="#L1_25" x="-350" y="0"/><use xlink:href="#L1_25" x="0" y="0"/><use xlink:href="#L1_25" x="350" y="0"/><use xlink:href="#L1_25" x="-350" y="350"/><use xlink:href="#L1_25" x="0" y="350"/><use xlink:href="#L1_25" x="350" y="350"/></pattern><rect x="0" y="0" width="100%" height="100%" fill="url(#pattern_L1_25)"/></g><g fi:class="KUsePattern"><pattern id="pattern_L1_26" width="350" height="350" patternUnits="userSpaceOnUse"><use xlink:href="#L1_26" x="-350" y="-350"/><use xlink:href="#L1_26" x="0" y="-350"/><use xlink:href="#L1_26" x="350" y="-350"/><use xlink:href="#L1_26" x="-350" y="0"/><use xlink:href="#L1_26" x="0" y="0"/><use xlink:href="#L1_26" x="350" y="0"/><use xlink:href="#L1_26" x="-350" y="350"/><use xlink:href="#L1_26" x="0" y="350"/><use xlink:href="#L1_26" x="350" y="350"/></pattern><rect x="0" y="0" width="100%" height="100%" fill="url(#pattern_L1_26)"/></g><g fi:class="KUsePattern"><pattern id="pattern_L1_27" width="350" height="350" patternUnits="userSpaceOnUse"><use xlink:href="#L1_27" x="-350" y="-350"/><use xlink:href="#L1_27" x="0" y="-350"/><use xlink:href="#L1_27" x="350" y="-350"/><use xlink:href="#L1_27" x="-350" y="0"/><use xlink:href="#L1_27" x="0" y="0"/><use xlink:href="#L1_27" x="350" y="0"/><use xlink:href="#L1_27" x="-350" y="350"/><use xlink:href="#L1_27" x="0" y="350"/><use xlink:href="#L1_27" x="350" y="350"/></pattern><rect x="0" y="0" width="100%" height="100%" fill="url(#pattern_L1_27)"/></g><g fi:class="KUsePattern"><pattern id="pattern_L1_28" width="350" height="350" patternUnits="userSpaceOnUse"><use xlink:href="#L1_28" x="-350" y="-350"/><use xlink:href="#L1_28" x="0" y="-350"/><use xlink:href="#L1_28" x="350" y="-350"/><use xlink:href="#L1_28" x="-350" y="0"/><use xlink:href="#L1_28" x="0" y="0"/><use xlink:href="#L1_28" x="350" y="0"/><use xlink:href="#L1_28" x="-350" y="350"/><use xlink:href="#L1_28" x="0" y="350"/><use xlink:href="#L1_28" x="350" y="350"/></pattern><rect x="0" y="0" width="100%" height="100%" fill="url(#pattern_L1_28)"/></g><g fi:class="KUsePattern"><pattern id="pattern_L1_29" width="350" height="350" patternUnits="userSpaceOnUse"><use xlink:href="#L1_29" x="-350" y="-350"/><use xlink:href="#L1_29" x="0" y="-350"/><use xlink:href="#L1_29" x="350" y="-350"/><use xlink:href="#L1_29" x="-350" y="0"/><use xlink:href="#L1_29" x="0" y="0"/><use xlink:href="#L1_29" x="350" y="0"/><use xlink:href="#L1_29" x="-350" y="350"/><use xlink:href="#L1_29" x="0" y="350"/><use xlink:href="#L1_29" x="350" y="350"/></pattern><rect x="0" y="0" width="100%" height="100%" fill="url(#pattern_L1_29)"/></g><g fi:class="KUsePattern"><pattern id="pattern_L1_30" width="350" height="350" patternUnits="userSpaceOnUse"><use xlink:href="#L1_30" x="-350" y="-350"/><use xlink:href="#L1_30" x="0" y="-350"/><use xlink:href="#L1_30" x="350" y="-350"/><use xlink:href="#L1_30" x="-350" y="0"/><use xlink:href="#L1_30" x="0" y="0"/><use xlink:href="#L1_30" x="350" y="0"/><use xlink:href="#L1_30" x="-350" y="350"/><use xlink:href="#L1_30" x="0" y="350"/><use xlink:href="#L1_30" x="350" y="350"/></pattern><rect x="0" y="0" width="100%" height="100%" fill="url(#pattern_L1_30)"/></g><g fi:class="KUsePattern"><pattern id="pattern_L1_31" width="350" height="350" patternUnits="userSpaceOnUse"><use xlink:href="#L1_31" x="-350" y="-350"/><use xlink:href="#L1_31" x="0" y="-350"/><use xlink:href="#L1_31" x="350" y="-350"/><use xlink:href="#L1_31" x="-350" y="0"/><use xlink:href="#L1_31" x="0" y="0"/><use xlink:href="#L1_31" x="350" y="0"/><use xlink:href="#L1_31" x="-350" y="350"/><use xlink:href="#L1_31" x="0" y="350"/><use xlink:href="#L1_31" x="350" y="350"/></pattern><rect x="0" y="0" width="100%" height="100%" fill="url(#pattern_L1_31)"/></g><g fi:class="KUsePattern"><pattern id="pattern_L1_32" width="350" height="350" patternUnits="userSpaceOnUse"><use xlink:href="#L1_32" x="-350" y="-350"/><use xlink:href="#L1_32" x="0" y="-350"/><use xlink:href="#L1_32" x="350" y="-350"/><use xlink:href="#L1_32" x="-350" y="0"/><use xlink:href="#L1_32" x="0" y="0"/><use xlink:href="#L1_32" x="350" y="0"/><use xlink:href="#L1_32" x="-350" y="350"/><use xlink:href="#L1_32" x="0" y="350"/><use xlink:href="#L1_32" x="350" y="350"/></pattern><rect x="0" y="0" width="100%" height="100%" fill="url(#pattern_L1_32)"/></g><g fi:class="KUsePattern"><pattern id="pattern_L1_33" width="350" height="350" patternUnits="userSpaceOnUse"><use xlink:href="#L1_33" x="-350" y="-350"/><use xlink:href="#L1_33" x="0" y="-350"/><use xlink:href="#L1_33" x="350" y="-350"/><use xlink:href="#L1_33" x="-350" y="0"/><use xlink:href="#L1_33" x="0" y="0"/><use xlink:href="#L1_33" x="350" y="0"/><use xlink:href="#L1_33" x="-350" y="350"/><use xlink:href="#L1_33" x="0" y="350"/><use xlink:href="#L1_33" x="350" y="350"/></pattern><rect x="0" y="0" width="100%" height="100%" fill="url(#pattern_L1_33)"/></g></svg>